<svg xmlns="http://www.w3.org/2000/svg" xmlns:xlink="http://www.w3.org/1999/xlink" viewBox="0 0 1600 900">
  <style>
    .st2{fill:#9ac7f7}.st7{fill:#a0a0a0}
  </style>
  <g id="Ebene_2_Kopie">
    <path fill="#f2f2f2" d="M0 0h1600v900H0z"/>
    <defs>
      <path id="SVGID_1_" d="M0 0h1600v900H0z"/>
    </defs>
    <clipPath id="SVGID_2_">
      <use xlink:href="#SVGID_1_" overflow="visible"/>
    </clipPath>
    <g clip-path="url(#SVGID_2_)">
      <path class="st2" d="M499 662l20 27c3 5 5 10 5 15-1 5-3 9-6 13l-19 34c-7 12-14 24-23 35l-24 27c-7 8-14 19-18 30-5 9-4 19 3 26l14 10 15 13c9 11 14 24 16 38 0 2 4 2 3 0-2-22-14-42-33-54l-13-10c-6-6-5-14-2-22l9-16c3-6 7-11 12-17 8-9 17-17 24-27 9-11 16-23 23-35l17-31c3-4 5-8 6-13 0-6-2-12-5-17-6-10-14-20-21-29-2-2-5 1-3 3zm505-696C954-9 922 39 900 89c-13 28-23 57-34 86l-17 44c-2 6-4 13-4 20s3 14 6 20c4 8 6 16 4 25-1 8-5 15-10 21-9 14-22 24-31 37-2 3 2 5 4 3 15-22 41-38 43-67 0-6-1-11-4-17-3-7-7-14-7-22s3-15 5-23l9-23c21-56 40-115 75-163 18-25 41-46 68-59 3-2 0-6-3-5z"/>
      <path class="st2" d="M816 344c-7 9-13 21-24 24l-17 1c-20 2-63 19-32 46 24-4 53-11 60-35 2-6 2-12 2-18"/>
      <path class="st2" d="M814 342c-6 8-10 17-18 22-6 3-11 2-17 2l-10 1c-12 3-24 7-33 16s-7 20 1 30c2 2 4 5 8 4l13-2c8-2 15-4 23-8 7-3 14-8 19-15 6-9 7-19 7-30 0-3-5-3-5 0 0 9 0 18-5 26-4 6-9 10-15 13-12 7-26 10-40 12h2c-7-6-14-16-6-25 5-7 15-11 23-13l12-3c7-1 14 0 21-2 11-4 17-16 24-25 2-3-3-5-5-3z"/>
    </g>
    <defs>
      <path id="SVGID_3_" d="M0 0h1600v900H0z"/>
    </defs>
    <clipPath id="SVGID_4_">
      <use xlink:href="#SVGID_3_" overflow="visible"/>
    </clipPath>
    <g clip-path="url(#SVGID_4_)">
      <path d="M844 476c0-19 30-126 22-143-3-7-111 4-116-2-12-17-12-40-9-61 1-6 2-12 0-19l-6-15c-7-12-16-22-27-31l-23-17c-22-16 46-57-19-101l-50 53c-30 13-54 38-64 68-4 12-7 25-13 35-4 5-8 10-8 16-1 5 2 9 4 12l25 47c4 8 8 15 14 21 6 5 13 8 20 11 49 26 77 83 128 104 11 4 23 7 32-1 6-5 13 58 12 50s78-19 78-27zm87 334c-29-22-61-41-92-60l1 1c-9 12-10 28-6 42 3 13 11 26 20 37 4 7 9 13 11 21l1 6 4 5 13 11c4-6 11-10 17-14 12-9 24-19 34-31 2-2 4-5 4-8 0-4-4-7-7-10zM346 385c-1-2-4-3-6-4-9-1-18 4-27 5-8 1-16-2-23-1-5 0-10 2-14 4-13 7-25 16-36 24l-78 61-11 15c12-3 23 6 28 17 4 11 3 23 2 34s-4 24-1 35c9-5 21-4 29 4 2 2 4 4 7 4l6-2c10-6 21-9 33-9-2-11-3-22 0-32 3-14 15-24 19-38 4-10 2-21 4-32s6-22 16-26c6-2 13-1 19-2 11-2 20-10 25-20 6-10 7-21 8-32v-5zM31 228c-1-6-7-10-12-12l-67-34-25 168c-2 3 0 7 3 9h11l60-13c9-1 18-4 22-12 4-6 2-14 0-21-5-25-3-51 6-75l2-10zm1617 99c-3-17-10-32-13-48-6-37 6-76-1-113l-3-6-6-3-34-6c-12-3-25-5-37-1-8 3-15 9-21 15-28 27-56 59-56 97 0 9 1 19-4 27l5-1c-6 8-11 17-13 27-2 9 1 21 9 26l13 7c8 6 10 19 20 23l11 1c18-3 36-10 53-5 5 1 10 3 15 2 4-1 7-4 10-7 12-11 27-19 43-23 3-1 7-2 8-5 2-2 1-5 1-8z" fill="#bfe8b5"/>
    </g>
    <defs>
      <path id="SVGID_5_" d="M0 0h1600v900H0z"/>
    </defs>
    <clipPath id="SVGID_6_">
      <use xlink:href="#SVGID_5_" overflow="visible"/>
    </clipPath>
    <path d="M1649 623c-15-16-40-24-70-21l-36 6c-11 3-23 5-34 6-32 3-65-4-93-21l-22-16c-13-9-25-19-40-25-10-4-20-6-31-8l-10-28c-3-7-6-13-11-18-6-6-15-8-22-9l-15-3a337 337 0 0 1 41-140c4 8 4 17 5 26 1 13 2 26 11 36l5 5c3 2 6 4 7 7 3 4 3 9 3 15 1 5 1 11 3 16 6 13 22 17 37 19l110 14c30 3 59 4 77-15 10-10 14-23 18-36l3-10c3-9 13-30 30-32a3 3 0 0 0-1-7c-15 2-28 15-35 36l-4 11c-4 12-7 24-16 33-16 17-43 16-71 13l-110-14c-13-2-27-5-31-15-2-4-2-9-3-14 0-6 0-12-4-17-2-4-5-7-8-9l-5-5c-7-8-8-19-9-32-1-10-2-21-7-30l28-37 3-6-2-9c-5-9-12-18-21-25h-2c-5 3-9 8-11 13-1 1 0 2 1 2 1 1 2 0 2-1 2-4 5-7 9-10 7 7 13 15 18 23l2 6c0 2-2 3-3 5l-26 36-1-1c0-1-1-2-3-2l-2 2c-8 13-15 27-21 42-11-10-23-18-35-24l-6-2c-4 0-7 2-9 4a95 95 0 0 0-34 55l2 3 2-2c4-21 16-40 32-53 2-2 4-3 7-3l4 1c13 7 25 15 36 25-13 33-21 67-23 103-18-3-36-4-53-4-32-2-65-4-95-12l-2-1c-8-2-15-5-23-4-6 1-12 4-17 6-14 7-26 16-38 25l-3 3c-8 6-16 13-25 14-11 1-21-5-32-12l-14-9c-15-7-33-9-49-10h-1l7-5c15-10 29-22 43-34 18-16 36-32 57-43 12-7 25-12 38-16l16-6a393 393 0 0 0 185-152c6-10 13-20 22-28 11-11 25-17 37-15 6 0 11 3 17 5l14 4c14 4 31 2 46-6 14-8 26-19 34-33 13 11 24 22 26 37 2 12-2 24-5 34-9 25-20 49-33 72l-4 7c-9 15-19 31-21 49-2 13 0 25 2 38 2 18 5 35-3 50a3 3 0 0 0 3 5c1 0 2 0 3-2 9-16 6-36 4-54-2-12-4-24-2-36 1-10 5-19 9-28a97 97 0 0 1 29-6c5-1 11-1 16-3 10-2 19-7 28-12 8-4 17-9 26-12 16-4 34-2 48 6h3c1-1 0-3-1-3-15-9-34-11-51-6-10 2-18 7-27 11-8 5-17 10-27 13l-15 2-9 1-17 4 8-14 4-7c13-23 25-47 34-73 3-11 7-24 5-37v-2c7-2 14-4 22-4 9-1 19 2 28 4 8 2 17 5 27 5h6l1-1h1c1 0 2-1 1-2v-1c3-4 5-9 6-13l8-27v-3c0-2-3-3-4-3a279 279 0 0 0-42-11l-3 4-4 16c-2 10-5 20-10 29l-16-2-22 5c-5-15-16-26-29-36 11-23 14-51 10-87 0-6 20-38 30-47 2-2 2-4 0-6-1-2-4-2-6-1a165 165 0 0 0-33 54c3 34 1 60-8 81l-1-1-17-14c-16-14-27-34-32-54 0-2-2-3-4-3-2 1-3 3-2 5 5 21 17 42 33 57l18 15 2 1c-17 31-49 42-71 37l-12-5c-6-2-13-5-20-5-15-2-31 4-44 17-10 9-17 20-24 30l-4 7c-9 14-20 27-31 39-10-3-18-11-24-19-6-6-12-14-12-22l1-3v-7c-2-6-7-10-12-13l-13-9c-1-1-2 0-3 1l1 2 13 9c4 3 9 6 10 11v8c-1 10 6 19 12 26s14 16 25 19c-40 43-89 78-143 99l-16 6c-13 5-26 10-39 17-22 11-41 28-59 44-13 12-27 24-42 34l-7 4-9 6-48-4c-6 0-13-1-20 1-5 1-9 3-14 6l-3 1c-17 9-36 12-54 16-31 6-95 9-115 9-18-11-37-21-58-28l35-41c6-8 13-16 21-22l15-11c9-5 19-11 25-19 20 23 47 51 74 51 6 0 12-1 18-4 27-15 53-32 78-48l38-24a512 512 0 0 1 26-13l2-1 2-4c23-12 49-19 75-22 2 0 2-1 2-2l-2-2c-26 3-53 11-77 22-34-46-80-95-133-140l-4-3c21-19 43-39 68-54l2-1c5-3 11-6 15-11l6-8c3-5 6-10 11-12 16 6 33 11 51 14l-10 50-4 30h-1c-4 2-9 2-14 2l-12 2c-13 4-23 15-29 24v5l3 1 2-2c8-10 16-18 26-21l11-2c5 0 9 0 14-2v3c2 15 8 28 18 37 13 11 33 12 47 12l33 2c2 0 4-2 4-4s-2-3-4-3l-32-2c-18 0-33-2-44-11-8-7-14-18-15-32-1-13 2-25 4-38l10-50h13c7 0 15 0 22-2l-1 3c3 18 6 37 13 54 6 14 17 33 37 43l6 3c7 4 14 7 17 13v1l3 6c3 2 6 2 7 2l41 3c2 0 4-1 4-3s-1-3-3-4l-41-3-3-1-1-2-1-1c-3-9-12-14-20-17l-6-3c-13-7-25-21-33-39l-4-12c8-6 28-21 47-28l9-3c5-1 10 1 15 2v1h2l5 2c6 3 13 6 18 10 5 5 8 12 7 17-1 4-4 7-6 10-2 2-1 4 0 5l2 1 3-1c3-4 6-8 7-13 2-6 1-16-8-24-6-5-14-9-21-11l-3-2 10-20c4-7 8-13 14-15l2-3-3-1c-8 3-12 10-16 17l-11 21c-5-2-11-4-18-3-4 0-8 2-11 3-18 7-37 20-46 28l-7-34c0-2-1-3-3-3 6-1 11-4 17-6 26-14 41-40 55-65 13-22 26-44 46-58l1-1c8-5 17-11 17-21 0-3-2-5-5-5s-4 2-4 5c0 5-7 10-13 14l-2 1c-21 15-35 38-48 61-14 25-28 48-52 61-33 17-75 5-111-9-9-4-17-7-24-12s-14-11-20-18l-13-14-28-29-2-3c-12-12-20-20-40-10l-35 19c-12 7-25 15-38 21-11 5-23 10-34 18-7 4-14 9-20 15C603 71 482-22 469-29c-2-1-5 0-6 2s0 5 2 6c12 6 133 100 148 115l-13 12-114 109c-13 13-27 26-40 41a272 272 0 0 0-99-98 561 561 0 0 0 33-33l9 3c16 8 30 19 42 32 1 2 3 2 5 1v-5c-12-14-27-26-44-35-4-2-9-4-14-3a592 592 0 0 1-37 35l-28-17c-17-10-34-21-50-33C328 63 415 12 455-8a3 3 0 0 0-4-6c-56 29-215 124-259 155C157 88 95-3 63-21c-3-2-7-1-9 2-1 3 0 7 3 9C86 6 149 98 182 148c-10 6-21 11-32 15l-31 14c-5-13-12-25-24-35-9-7-20-11-30-15l-12-5 1-1c5-19 11-39 9-59 0-2-3-4-5-4-3 0-4 3-4 5 2 18-3 36-9 55-24-14-43-37-63-63a12 12 0 1 0-19 14c22 29 45 57 76 73-2 4-2 9-3 14-3 20 0 40 2 59v4c8 62 10 117 8 167l-4-3c-3-2-7-2-11-1l-7 6v1c-6 6-10 9-15 11s-12 1-15-3l-4-8-1-19 1-22 31-11 4-2c2-2 1-5 1-7l-7-34-1-2h-1l-6 2-1-17-1-1 17-5 1-3-3-1-56 16-7 4c-3 2-5 6-6 9l-22 49 1 2h1l2-1 21-48 5-8 6-3 37-11v1l1 18-4 1c-6 2-12 4-14 10-2 3-2 6-2 9l-1 54c-1 7-1 14 1 20 0 5 2 8 4 10 3 4 8 6 13 6l7-2c7-2 12-7 16-12l6-5h7c3 1 4 4 5 6v1c-1 22-3 42-6 62l-2 13-3 20c-15-3-28-9-42-16l-4-2 5-7c8-15 12-32 15-47l-2-3-2 2c-3 15-7 32-15 46-11 18-28 31-44 43v3l2 1 1-1 21-17 14 16 1 1 2-1v-3c-6-5-10-10-14-16l13-14 5 2c15 8 28 14 44 17l-1 12c-3 38 4 77 21 112a474 474 0 0 1-67-58l-47-50a12 12 0 1 0-17 17l47 49a443 443 0 0 0 84 71c-4 7-2 16 0 22 2 4 3 8 2 11-6 40-18 77-29 114-14 46-29 95-33 147-1 2 1 4 3 4s3-1 4-3c4-52 18-98 33-146 11-37 22-75 29-115 1-4 0-9-2-14-2-7-3-12-1-16l25 16c4 10 11 19 16 26a1443 1443 0 0 0 128 146l-44 59c-35 46-35 47-34 51 1 3 3 4 6 4h2a3214 3214 0 0 1 78-104c8 11 13 22 14 33l-2 19c-2 15-4 33 7 47 2 4 6 5 10 5 2 0 5 0 7-2 5-4 6-11 3-17-6-7-4-18-3-30l2-23c-1-20-11-37-23-52l3-3 29-39c15-27 31-55 48-82 20 20 46 34 73 40 5 2 11 3 17 3l8-1c19-4 32-20 43-37l101-154c1-2 0-4-1-5-2-1-4-1-5 1L467 704c-10 15-22 31-38 34-8 2-16 0-22-1-27-7-52-21-72-40l8-13c24-39 49-79 70-121a372 372 0 0 0 32-91l43 5 25 2a264 264 0 0 1 213 149l8 14c-20 10-41 19-63 26l-7 3c-14 5-29 10-43 18-17 11-30 25-43 40L477 842 376 954a5 5 0 0 0 4 8l3-2 101-112 101-113c12-14 25-28 41-38 12-8 27-13 41-17l7-3c22-8 43-17 64-27a323 323 0 0 0 34 47c-7 8-15 15-23 21l-3 2-15 14-2 3c-16-6-32-12-40-12l-2 2 2 2c7 0 23 6 39 12l-4 8-3 9-37-2c-12-1-24-2-35-7l-13-9-9-8-3 1v3l10 7 7 6c1 6-1 12-4 17l-1 4-3 9c-11-4-20-13-30-22h-3v2c10 10 20 20 33 24-2 9-3 19-2 28-7-2-13-6-18-10l-3 1 1 3 20 11 2 1h1a395 395 0 0 0 53 7 278 278 0 0 1 48 5c-3 11-5 23-1 34l2 2h1l1-3c-4-10-2-21 1-32 15 5 28 11 41 20-8 9-15 18-20 28-1 1 0 2 1 3h1l1-1c6-10 12-19 20-28a138 138 0 0 1 35 39c9 12 17 25 31 30h1l1-1c1-1 0-2-1-3-12-4-20-16-28-28l-5-8c-19-26-46-46-76-55l7-18 5-11-2-3-2 2-5 11-7 18a123 123 0 0 0-31-4 1253 1253 0 0 1 10-33v-1l12-37 3-8 28 10h1l1-1a335 335 0 0 1-28-12l2-2c3-6 8-10 14-14l2-2c9-6 17-13 24-21 27 29 60 53 93 75l40 30c-3 9-8 18-13 26l-2 3c-4 6-8 11-10 18s-2 15-2 22l1 25c0 12 1 25 6 36l2 2 1-1 1-2c-5-11-6-24-6-35l-1-25c0-7 0-14 2-21 2-6 5-12 9-17l2-3 14-26c13 10 26 21 38 33l28 30a236 236 0 0 0 89 72c3 0 6-1 7-4 1-4-1-7-4-9-33-12-57-39-82-67l-29-31c-21-21-44-39-68-55 8-14 19-26 29-37 11-12 22-24 30-37l1-2 6-8c4-3 9-3 13-1 1 2 2 4 4 3 7 0 13 1 16 3 4 3 6 6 8 10l3 5c12 18 34 25 53 30v1a938 938 0 0 1 75 26c-11 29-14 59-9 86l7 26c6 19 11 36 8 54 0 2 1 4 3 4s4-1 4-3c3-19-3-38-8-57l-7-25c-7-38 2-93 45-144a440 440 0 0 1 36 50h1l3 5 2 2-2 1-6 5c-2 4-2 10-1 15l2 2 2-3c-1-4-1-8 1-12l4-4 2-1c8 11 17 22 22 33l4 10-3 9-6 19c-1 1 0 2 1 3h1l1-1 7-20c1-3 3-7 3-11l-4-11c-6-11-14-23-23-33l16-12c7-5 15-11 23-13h3l3 2 22 33c0 1 2 2 3 1v-3l-15-22 4-2 3-1 31-15c8 3 15 9 20 16h3v-3c-5-6-11-12-18-15l16-8c6-3 12-6 17-11v-3h-2l-16 10-52 25-3 2-5 2-5-8-4-4h-6c-9 3-17 9-24 14l-16 11-2-2-3-4-1-3c-10-18-22-35-34-50 6-8 13-15 21-22 20-18 44-30 70-43 5 5 7 10 11 16v1l4 7 9 5c12 4 24 5 36 5 2 0 6 0 7 2l2 1 2-2c-1-3-3-6-11-5-12 0-24-1-34-5l-8-4-3-5-1-2-10-16 11-5c32-15 64-31 96-56l9 7 23 16c30 18 65 27 99 23 12-1 24-3 35-6 12-2 23-5 35-6 27-3 49 4 62 18 2 2 5 2 7 1v-7zm-143-472a200 200 0 0 1 5-16h1c13 2 25 6 38 10l1 1v1l-8 26c-2 5-3 10-6 14-11 1-21-1-32-4l-9-3c5-9 7-19 10-29zM-9 315l1-7c2-4 7-6 12-8l3-1 2 1 1-2 6-1 6 32v3l-2 2-30 10 1-29zm649 456l1-3c2-6 4-11 4-17l2 1c11 6 25 7 36 8l37 2-8 23c-18-3-38-4-57-3h-1a71 71 0 0 1-17-1l3-10zm47 48l-21-1-31-5c-1-10-1-19 1-28l6 1h14c18-1 37 0 55 3l-9 31-15-1zm266-321l13 8c11 8 23 15 37 13 11-1 20-8 28-15l3-2c12-10 24-18 37-25l14-5c7-1 14 1 20 3l3 1c31 9 64 11 96 12 25 2 50 3 75 8 6 1 13 3 18 7a541 541 0 0 1 18 41l-35-1a5919 5919 0 0 0-412 21c-1-22-1-45 13-62 4-6 10-10 16-14l9 1c16 1 33 2 47 9zM843 383c-25 17-51 33-78 48-29 16-63-19-87-47v-3h-2l-10-12-6-8-25-31-10-12 1-1 32-27c2-2 6-6 5-10l-3-4-31-34c-7-8-15-18-18-29-1-6 0-14 4-19 2-2 5-6 11-6 7-2 14 3 20 8 15 11 29 25 42 38l20 20c17 16 42 37 72 45 3 1 7 2 11 0l15 9c9 6 19 13 27 21a60 60 0 0 1 18 34l4 12-12 8zm61-37a550 550 0 0 0-45 27c-2-3-3-7-3-11l-1-4c-3-11-9-22-19-31-8-9-18-16-28-22l-13-8 3-4 30-34c29 29 55 58 76 87zM844 96c8 6 17 9 26 13l1 1c-4 3-6 7-9 11l-5 8c-4 5-9 8-14 10l-2 1c-26 15-48 35-69 55l-20-17-22-17 20-24 21 21 1 1 2-1v-3l-21-21a833 833 0 0 1 29-28l10-5 4-2c11-4 21-10 31-18 5 6 11 11 17 15zM644 80c11-7 22-12 34-17 13-6 26-14 38-21l34-19c15-7 18-4 30 9l2 2 28 29 13 14 1 1c-9 7-18 12-28 17l-1-1-7-4-21-26h-3v3a245 245 0 0 0 27 30l-11 5-12 10-20-17c-5-5-12-11-14-18-1-2-2-2-3-2l-1 3c2 9 10 15 16 20l19 17-39 44a64 64 0 0 0-22-5c-8-2-15-3-21-6-7-4-12-11-17-17a1403 1403 0 0 0-32-44l10-7zm-38 32l22-19 14 20 17 23c5 7 11 15 20 20 7 4 15 5 23 7 6 0 11 1 15 3 11 3 20 11 29 19l27 23 53 48-30 35-5 4-3 1-7-1c-29-8-53-28-70-44l-20-19c-13-14-27-28-42-39-7-5-15-10-24-9-5 0-9 3-13 8-4 6-6 15-4 22 2 12 11 23 19 31l30 34 2 2c1 2-1 4-4 7l-32 26v1c-27-33-53-64-83-97-7-7-14-15-24-19l90-87zm-246 64c38 27 65 55 81 85l-3 3-6 7c-12 13-23 26-38 35-7 0-14 2-22 6l-6 3c-7 4-13 8-19 8-13 2-27-7-40-26l-18-29c-9-13-17-28-28-41 29-19 56-40 80-64l19 13zm78 250l-4 35c-27 3-53-4-81-12l-34-9a511 511 0 0 0-73-10c-33-4-66-11-98-20 36-19 75-35 116-49l26-5c17-3 36-5 50-20h8c9-1 17-5 24-9l6-3c5-3 16-7 23-3l8 9c13 18 28 39 31 63 1 10 0 22-2 33zM90 578c-7-4-12-10-14-16-5-12-4-26-2-40 5-38 13-77 24-114l19 1c-12 56-20 113-27 169zm9-315v-4l1-1 14-8 3 12c6 16 11 32 13 49 2 24-3 49-9 74l-1 6-2 11-20-1c6-43 13-92 1-138zm45 133l1-6c6-27 11-54 9-82l-3-17h2c5 0 11-1 17-4 7-3 12-8 18-13l5-3c11-9 23-16 35-23l10-6 12-8 1 1c10 13 19 27 27 40l18 29c10 13 19 23 29 28-10 7-23 9-37 11-9 1-19 3-28 6-42 14-81 30-117 48l1-1zm113-289v1a1035 1035 0 0 0 78 51c-24 23-50 44-78 63l-18-20c-11-12-21-22-29-35l-10-15-4-6 61-39zm-105 62c11-4 23-9 33-15l4 5 10 16c9 13 20 25 30 36l17 18-12 7-10 6c-12 7-24 14-36 23l-5 4c-5 5-10 9-16 12s-13 4-18 3l-9-30-9-28-3-15-7-27c10-6 20-10 31-15zM42 505c0-12 2-24 4-36l2-12c10-70 10-146-1-239v-4c-2-19-5-38-2-56l2-13 9 4c9 4 18 7 24 12 15 12 20 33 25 55l3 16 4 12c-6 2-10 5-15 8l-5 4v9a359 359 0 0 1-1 142c-11 37-19 76-24 114-2 14-3 29 2 43 3 9 11 17 20 21l-6 41-1 9-13-9c-21-36-30-79-27-121zm231 274l-28 37-1 1-15-15-44-47 8-5 14-8c15-11 23-28 27-40 5-13 7-27 8-41l69 52c-14 21-27 44-38 66zm59-102l-18 30-73-55-3-1-2 3c-1 11-2 22-5 32l-28-13c-16-7-30-13-41-24-1-2-3-2-5-1v5c12 13 28 20 43 26l30 14-2 7c-4 11-11 26-25 36l-13 8-10 5c-20-24-41-48-60-73-6-8-11-15-13-23-2-7-1-16 0-24l8-60c14 3 27 9 41 16 8 4 17 9 26 12 33 12 68 12 101 13 29 0 58 0 85 7l-36 60zm69-120c-9 19-19 37-29 54-29-8-59-8-88-8-34 0-68-1-99-12l-26-12c-14-7-28-13-43-17 7-48 14-97 23-145a703 703 0 0 0 126 24c17 2 35 4 52 8l33 8c23 7 47 14 71 14l11-1a277 277 0 0 1-31 87zm88-93l-42-5 4-32c2-11 3-24 2-36-4-27-20-50-34-69-3-4-6-9-12-12l-1-1c12-9 23-21 33-32l6-7c15-17 32-33 48-48l20-20c9 4 17 12 24 19 34 37 64 74 95 112l25 31 6 8 10 12c-6 9-15 14-24 20l-16 11c-9 6-15 14-22 22l-36 43a311 311 0 0 0-86-16zm248 157c-11-19-23-39-37-57-15-19-32-35-52-49a1505 1505 0 0 0 106-8c19-4 38-8 55-17l4-2 13-5h17l40 3c-3 3-7 6-9 10-17 21-16 47-15 71l-5 2c-11 5-21 12-31 19l-4 3c-24 17-48 32-74 45l-8-15zm396 137l-2 5-75-27c-19-6-39-12-49-28l-3-4c-3-5-5-9-10-12-5-4-12-5-21-5-6-3-13-2-19 2-3 2-5 6-7 9l-1 2c-8 13-18 25-29 36-11 12-22 23-30 37l-12-9c-37-26-76-52-103-88l-22-32c26-13 51-29 74-46l4-3c10-6 19-13 30-18l6-2 2-1c14-4 29-6 43-7 2 8 4 17 2 24l-4 10-3 5c-7 15-7 33-1 48l2 2 2-3c-4-8-5-17-4-26l15 1 2-2-2-2-14-1h-1l5-16 2-4 5-11c2-8 0-17-2-25 52-4 105-7 158-9 6 38-10 80-40 105-8-3-15-5-24-6-2-1-3 1-4 3 0 2 1 3 3 4 16 2 30 9 46 17 14 7 29 15 46 18h4l5-1c4-1 6-4 8-7l19-23 33 36c-14 17-25 35-34 54zm24-131v1l-47 59-5 5h-6c-8-2-16-4-23-8l13-13 8-7c11-11 21-25 30-42l3-8v-1l2 1a709 709 0 0 1 25 13zm123 0l-3 1c-3-6-6-15-5-19s6-7 11-9v-1c11-6 20-13 28-22a3 3 0 0 0-5-5c-8 9-16 16-26 21l-1 1c-5 3-11 6-14 13-2 6 3 18 6 24l-25 12c-6-10-14-18-25-23-2-1-4 0-4 2-1 2 0 4 1 5 9 4 17 11 22 19l-23 14-6-13-2-4c-5-10-11-19-19-27a3 3 0 0 0-5 5c7 7 13 16 17 25l2 4c2 5 4 9 8 13l-15 12-19-20a3 3 0 0 0-5 5l19 19-20 20c-10-13-22-25-34-37l25-30v-1l12 7h1c2 0 3-1 3-2 1-1 1-4-1-5l-14-7-4-3-25-13c-3-2-6-3-9-1-2 1-2 3-3 5l-2 6c-9 17-18 30-29 41l-8 7c-5 5-10 9-15 16l-14-7-17-8a124 124 0 0 0 41-110c67-3 134-5 201-5 23-1 48-1 71 8l22 12c-30 24-62 40-93 55z" clip-path="url(#SVGID_6_)" fill="#fff" stroke="#cecece" stroke-miterlimit="10"/>
    <g>
      <defs>
        <path id="SVGID_7_" d="M0 0h1600v900H0z"/>
      </defs>
      <clipPath id="SVGID_8_">
        <use xlink:href="#SVGID_7_" overflow="visible"/>
      </clipPath>
      <g clip-path="url(#SVGID_8_)">
        <path class="st7" d="M337 937c39-77 97-143 163-197 69-57 148-103 231-137s170-57 259-69c94-14 189-15 283-8a3093 3093 0 0 1 38 2c-97-9-194-11-291 1-89 10-178 31-263 63-83 31-163 74-234 128a656 656 0 0 0-186 217z"/>
        <path class="st7" d="M334 932c39-77 97-143 163-197 69-57 148-103 231-137s170-57 259-69c94-14 189-15 283-8a3093 3093 0 0 1 38 2c-97-9-194-11-291 1-89 10-178 31-263 63-83 31-163 74-234 128a656 656 0 0 0-186 217z"/>
      </g>
    </g>
    <g>
      <defs>
        <path id="SVGID_9_" d="M0 0h1600v900H0z"/>
      </defs>
      <clipPath id="SVGID_10_">
        <use xlink:href="#SVGID_9_" overflow="visible"/>
      </clipPath>
      <path d="M276 932c-5-7-3-18-2-30 1-7 2-15 1-23-1-33-26-58-45-78-39-39-75-82-109-125-6-8-11-15-13-23-2-7-1-16 0-24 10-77 20-156 37-233l1-6c5-26 11-54 8-82-2-19-7-37-13-54l-9-28-3-15c-5-24-11-52-33-69-10-8-20-12-30-16l-13-5C25 108 5 83-17 54c-5-6-13-7-19-3s-6 13-2 19a227 227 0 0 0 94 80c9 3 17 7 24 12 14 12 19 33 24 55l3 15 9 30c6 17 11 33 13 49 2 24-3 49-9 74l-1 6c-16 78-27 158-37 235v7c-19-12-41-27-53-37-15-12-28-26-41-39l-47-49c-5-5-13-6-18-1-6 5-6 14-1 19l47 49a469 469 0 0 0 115 90c4 11 11 20 16 27 34 44 72 87 111 127 18 18 37 38 38 61 1 6 0 12-1 19-2 15-4 33 7 48 3 3 7 5 11 5 2 0 5 0 7-2 6-4 8-12 3-18z" clip-path="url(#SVGID_10_)" fill="#f2d7e6" stroke="#efabc7" stroke-width="2" stroke-miterlimit="10"/>
    </g>
  </g>
</svg>
